<svg xmlns="http://www.w3.org/2000/svg" xmlns:v="https://svgstorm.com" viewBox="0 0 323 326" width="323" height="326">
<g fill="None" fill-opacity="0.0" stroke="#FCFCFC" stroke-opacity="1.00" stroke-width="0.3">
</g>
<g fill="None" fill-opacity="0.0" stroke="#000000" stroke-opacity="1.00" stroke-width="0.3"><path d="
M 0.00 150.00 
L 0.00 176.00
C 5.46 256.80 77.23 323.04 158.01 324.99 C 238.78 326.94 315.54 263.02 323.00 182.00
L 323.00 143.00
C 314.05 62.58 238.55 0.12 158.00 2.00 C 77.45 3.88 5.63 69.36 0.00 150.00
M 80.00 118.00 
C 110.64 122.38 125.14 163.91 106.23 188.23 C 87.32 212.55 46.21 208.33 34.68 178.32 C 23.15 148.31 44.28 112.90 80.00 118.00
M 288.00 144.00 
C 283.00 144.00 278.00 144.00 273.00 144.00
C 275.14 131.24 245.48 123.87 242.70 138.70 C 239.91 153.52 262.82 154.13 274.68 157.32 C 286.53 160.52 296.59 177.77 288.08 190.08 C 279.56 202.38 264.49 205.09 250.33 203.67 C 236.17 202.25 224.95 192.36 224.00 178.00
C 229.33 178.00 234.67 178.00 240.00 178.00
C 243.81 188.80 255.56 194.82 268.07 188.07 C 280.59 181.33 269.23 168.29 257.98 168.02 C 246.72 167.76 234.94 163.20 228.70 154.30 C 222.46 145.41 225.50 130.20 234.75 123.75 C 244.01 117.30 258.37 116.70 269.22 119.78 C 280.07 122.86 288.80 131.90 288.00 144.00
M 148.00 119.00 
C 154.36 139.07 160.95 159.82 169.00 179.00
C 171.27 169.51 175.69 163.70 177.92 153.92 C 180.16 144.15 184.76 139.66 186.78 128.78 C 188.79 117.89 200.54 117.25 212.00 119.00
C 212.00 147.00 212.00 175.00 212.00 203.00
C 206.67 203.00 201.33 203.00 196.00 203.00
C 195.33 183.50 197.33 162.68 195.00 144.00
C 189.74 163.92 181.82 183.16 176.00 203.00
C 158.77 208.41 157.68 190.90 153.68 179.32 C 149.67 167.74 145.65 155.76 142.00 144.00
C 139.67 162.76 141.66 183.49 141.00 203.00
C 135.67 203.00 130.33 203.00 125.00 203.00
C 125.00 175.00 125.00 147.00 125.00 119.00
C 132.67 119.00 140.33 119.00 148.00 119.00 Z" data-index="1"></path>
</g>
<g fill="None" fill-opacity="0.0" stroke="#FAFAFB" stroke-opacity="1.00" stroke-width="0.3"><path d="
M 80.00 118.00 
C 44.28 112.90 23.15 148.31 34.68 178.32 C 46.21 208.33 87.32 212.55 106.23 188.23 C 125.14 163.91 110.64 122.38 80.00 118.00
M 80.00 134.00 
C 109.71 140.15 97.74 198.22 66.98 188.02 C 36.21 177.83 46.76 127.12 80.00 134.00 Z" data-index="2"></path>
</g>
<g fill="None" fill-opacity="0.0" stroke="#FAFAFA" stroke-opacity="1.00" stroke-width="0.3"><path d="
M 288.00 144.00 
C 288.80 131.90 280.07 122.86 269.22 119.78 C 258.37 116.70 244.01 117.30 234.75 123.75 C 225.50 130.20 222.46 145.41 228.70 154.30 C 234.94 163.20 246.72 167.76 257.98 168.02 C 269.23 168.29 280.59 181.33 268.07 188.07 C 255.56 194.82 243.81 188.80 240.00 178.00
C 234.67 178.00 229.33 178.00 224.00 178.00
C 224.95 192.36 236.17 202.25 250.33 203.67 C 264.49 205.09 279.56 202.38 288.08 190.08 C 296.59 177.77 286.53 160.52 274.68 157.32 C 262.82 154.13 239.91 153.52 242.70 138.70 C 245.48 123.87 275.14 131.24 273.00 144.00
C 278.00 144.00 283.00 144.00 288.00 144.00 Z" data-index="3"></path>
</g>
<g fill="None" fill-opacity="0.0" stroke="#FBFBFB" stroke-opacity="1.00" stroke-width="0.3"><path d="
M 148.00 119.00 
C 140.33 119.00 132.67 119.00 125.00 119.00
C 125.00 147.00 125.00 175.00 125.00 203.00
C 130.33 203.00 135.67 203.00 141.00 203.00
C 141.66 183.49 139.67 162.76 142.00 144.00
C 145.65 155.76 149.67 167.74 153.68 179.32 C 157.68 190.90 158.77 208.41 176.00 203.00
C 181.82 183.16 189.74 163.92 195.00 144.00
C 197.33 162.68 195.33 183.50 196.00 203.00
C 201.33 203.00 206.67 203.00 212.00 203.00
C 212.00 175.00 212.00 147.00 212.00 119.00
C 200.54 117.25 188.79 117.89 186.78 128.78 C 184.76 139.66 180.16 144.15 177.92 153.92 C 175.69 163.70 171.27 169.51 169.00 179.00
C 160.95 159.82 154.36 139.07 148.00 119.00 Z" data-index="4"></path>
</g>
<g fill="None" fill-opacity="0.0" stroke="#000000" stroke-opacity="1.00" stroke-width="0.3"><path d="
M 80.00 134.00 
C 46.76 127.12 36.21 177.83 66.98 188.02 C 97.74 198.22 109.71 140.15 80.00 134.00 Z" data-index="5"></path>
</g>
<g fill="None" fill-opacity="0.0" stroke="#FCFCFC" stroke-opacity="1.00" stroke-width="0.3">
</g>
<g fill="#FCFCFC" fill-opacity="1.00" stroke="None">
<path d="
M 0.00 150.00 
C 5.63 69.36 77.45 3.88 158.00 2.00 C 238.55 0.12 314.05 62.58 323.00 143.00
L 323.00 0.00
L 0.00 0.00
L 0.00 150.00 Z" data-index="7" style="visibility: hidden;"></path>
</g>
<g fill="#000000" fill-opacity="1.00" stroke="None">
<path d="
M 0.00 150.00 
L 0.00 176.00
C 5.46 256.80 77.23 323.04 158.01 324.99 C 238.78 326.94 315.54 263.02 323.00 182.00
L 323.00 143.00
C 314.05 62.58 238.55 0.12 158.00 2.00 C 77.45 3.88 5.63 69.36 0.00 150.00
M 80.00 118.00 
C 110.64 122.38 125.14 163.91 106.23 188.23 C 87.32 212.55 46.21 208.33 34.68 178.32 C 23.15 148.31 44.28 112.90 80.00 118.00
M 288.00 144.00 
C 283.00 144.00 278.00 144.00 273.00 144.00
C 275.14 131.24 245.48 123.87 242.70 138.70 C 239.91 153.52 262.82 154.13 274.68 157.32 C 286.53 160.52 296.59 177.77 288.08 190.08 C 279.56 202.38 264.49 205.09 250.33 203.67 C 236.17 202.25 224.95 192.36 224.00 178.00
C 229.33 178.00 234.67 178.00 240.00 178.00
C 243.81 188.80 255.56 194.82 268.07 188.07 C 280.59 181.33 269.23 168.29 257.98 168.02 C 246.72 167.76 234.94 163.20 228.70 154.30 C 222.46 145.41 225.50 130.20 234.75 123.75 C 244.01 117.30 258.37 116.70 269.22 119.78 C 280.07 122.86 288.80 131.90 288.00 144.00
M 148.00 119.00 
C 154.36 139.07 160.95 159.82 169.00 179.00
C 171.27 169.51 175.69 163.70 177.92 153.92 C 180.16 144.15 184.76 139.66 186.78 128.78 C 188.79 117.89 200.54 117.25 212.00 119.00
C 212.00 147.00 212.00 175.00 212.00 203.00
C 206.67 203.00 201.33 203.00 196.00 203.00
C 195.33 183.50 197.33 162.68 195.00 144.00
C 189.74 163.92 181.82 183.16 176.00 203.00
C 158.77 208.41 157.68 190.90 153.68 179.32 C 149.67 167.74 145.65 155.76 142.00 144.00
C 139.67 162.76 141.66 183.49 141.00 203.00
C 135.67 203.00 130.33 203.00 125.00 203.00
C 125.00 175.00 125.00 147.00 125.00 119.00
C 132.67 119.00 140.33 119.00 148.00 119.00 Z" data-index="8" style="opacity: 1;"></path>
</g>
<g fill="#FAFAFB" fill-opacity="1.00" stroke="None">
<path d="
M 80.00 118.00 
C 44.28 112.90 23.15 148.31 34.68 178.32 C 46.21 208.33 87.32 212.55 106.23 188.23 C 125.14 163.91 110.64 122.38 80.00 118.00
M 80.00 134.00 
C 109.71 140.15 97.74 198.22 66.98 188.02 C 36.21 177.83 46.76 127.12 80.00 134.00 Z" data-index="9"></path>
</g>
<g fill="#FAFAFA" fill-opacity="1.00" stroke="None">
<path d="
M 288.00 144.00 
C 288.80 131.90 280.07 122.86 269.22 119.78 C 258.37 116.70 244.01 117.30 234.75 123.75 C 225.50 130.20 222.46 145.41 228.70 154.30 C 234.94 163.20 246.72 167.76 257.98 168.02 C 269.23 168.29 280.59 181.33 268.07 188.07 C 255.56 194.82 243.81 188.80 240.00 178.00
C 234.67 178.00 229.33 178.00 224.00 178.00
C 224.95 192.36 236.17 202.25 250.33 203.67 C 264.49 205.09 279.56 202.38 288.08 190.08 C 296.59 177.77 286.53 160.52 274.68 157.32 C 262.82 154.13 239.91 153.52 242.70 138.70 C 245.48 123.87 275.14 131.24 273.00 144.00
C 278.00 144.00 283.00 144.00 288.00 144.00 Z" data-index="10" style="opacity: 1;"></path>
</g>
<g fill="#FBFBFB" fill-opacity="1.00" stroke="None">
<path d="
M 148.00 119.00 
C 140.33 119.00 132.67 119.00 125.00 119.00
C 125.00 147.00 125.00 175.00 125.00 203.00
C 130.33 203.00 135.67 203.00 141.00 203.00
C 141.66 183.49 139.67 162.76 142.00 144.00
C 145.65 155.76 149.67 167.74 153.68 179.32 C 157.68 190.90 158.77 208.41 176.00 203.00
C 181.82 183.16 189.74 163.92 195.00 144.00
C 197.33 162.68 195.33 183.50 196.00 203.00
C 201.33 203.00 206.67 203.00 212.00 203.00
C 212.00 175.00 212.00 147.00 212.00 119.00
C 200.54 117.25 188.79 117.89 186.78 128.78 C 184.76 139.66 180.16 144.15 177.92 153.92 C 175.69 163.70 171.27 169.51 169.00 179.00
C 160.95 159.82 154.36 139.07 148.00 119.00 Z" data-index="11"></path>
</g>
<g fill="#000000" fill-opacity="1.00" stroke="None">
<path d="
M 80.00 134.00 
C 46.76 127.12 36.21 177.83 66.98 188.02 C 97.74 198.22 109.71 140.15 80.00 134.00 Z" data-index="12"></path>
</g>
<g fill="#FCFCFC" fill-opacity="1.00" stroke="None">

</g>
</svg>